<?xml version="1.0" standalone="no"?><!DOCTYPE svg PUBLIC "-//W3C//DTD SVG 1.1//EN" "http://www.w3.org/Graphics/SVG/1.1/DTD/svg11.dtd"><svg t="1616142730573" class="icon" viewBox="0 0 1247 1024" version="1.1" xmlns="http://www.w3.org/2000/svg" p-id="16791" xmlns:xlink="http://www.w3.org/1999/xlink" width="243.5546875" height="200"><defs><style type="text/css"></style></defs><path d="M34.505218 1023.999174a33.678746 33.678746 0 0 1-12.397084-2.272799A34.711836 34.711836 0 0 1 0 989.493955V76.861923A77.068542 77.068542 0 0 1 76.861923 0h1093.422847a77.068542 77.068542 0 0 1 76.861923 76.861923v673.781539a77.068542 77.068542 0 0 1-76.861923 76.861923H209.097491c-7.231633 7.231633-29.133148 35.538309-48.761866 60.745714-32.025801 41.323615-72.109708 93.184751-103.309037 125.830407a30.786093 30.786093 0 0 1-22.52137 9.917668zM76.861923 20.661807A56.200116 56.200116 0 0 0 20.661807 76.861923v912.632032a14.256647 14.256647 0 0 0 9.091196 13.016939 11.157376 11.157376 0 0 0 12.603702-2.479417c30.166239-32.025801 69.836909-82.64723 101.656092-123.970844 51.4479-66.53102 54.133935-68.803819 61.985423-68.803819h964.28655a56.200116 56.200116 0 0 0 56.200116-56.200116V76.861923A56.200116 56.200116 0 0 0 1170.28477 20.661807z" fill="#d4237a" p-id="16792"></path><path d="M929.781332 214.262942H316.952125a10.330904 10.330904 0 0 1-10.330904-10.330903 10.330904 10.330904 0 0 1 10.330904-10.330904H929.781332a10.330904 10.330904 0 0 1 10.330904 10.330904 10.330904 10.330904 0 0 1-10.330904 10.330903zM929.781332 408.070696H316.952125a10.330904 10.330904 0 0 1-10.330904-10.330904 10.330904 10.330904 0 0 1 10.330904-10.330904H929.781332a10.330904 10.330904 0 0 1 10.330904 10.330904 10.330904 10.330904 0 0 1-10.330904 10.330904zM929.781332 601.671831H316.952125a10.330904 10.330904 0 0 1-10.330904-10.330904 10.330904 10.330904 0 0 1 10.330904-10.330904H929.781332a10.330904 10.330904 0 0 1 10.330904 10.330904 10.330904 10.330904 0 0 1-10.330904 10.330904z" fill="#d4237a" p-id="16793"></path></svg>