<?xml version="1.0" standalone="no"?><!DOCTYPE svg PUBLIC "-//W3C//DTD SVG 1.1//EN" "http://www.w3.org/Graphics/SVG/1.1/DTD/svg11.dtd"><svg t="1608531766212" class="icon" viewBox="0 0 1024 1024" version="1.1" xmlns="http://www.w3.org/2000/svg" p-id="2169" width="280" height="280" xmlns:xlink="http://www.w3.org/1999/xlink"><defs><style type="text/css"></style></defs><path d="M676.266667 147.2c-49.066667 0-96 14.933333-136.533334 44.8-10.666667 8.533333-25.6 8.533333-36.266666 0-40.533333-29.866667-85.333333-44.8-134.4-44.8-147.2 0-266.666667 128-266.666667 283.733333 0 78.933333 34.133333 149.333333 78.933333 213.333334 23.466667 34.133333 51.2 61.866667 78.933334 91.733333 19.2 21.333333 40.533333 40.533333 64 59.733333l4.266666 4.266667c38.4 34.133333 81.066667 68.266667 128 102.4l4.266667 2.133333c17.066667 12.8 38.4 21.333333 61.866667 21.333334 21.333333 0 42.666667-6.4 61.866666-21.333334l4.266667-2.133333c76.8-55.466667 215.466667-166.4 285.866667-273.066667 29.866667-44.8 70.4-108.8 70.4-200.533333-4.266667-153.6-123.733333-281.6-268.8-281.6z m142.933333 452.266667c-61.866667 98.133333-196.266667 202.666667-268.8 256l-4.266667 4.266666c-14.933333 10.666667-34.133333 10.666667-46.933333 0l-4.266667-4.266666c-17.066667-12.8-34.133333-23.466667-49.066666-36.266667-19.2-14.933333-36.266667-29.866667-53.333334-44.8-19.2-14.933333-36.266667-29.866667-53.333333-46.933333-27.733333-25.6-53.333333-53.333333-78.933333-83.2-8.533333-10.666667-19.2-21.333333-27.733334-32-2.133333-4.266667-6.4-8.533333-8.533333-12.8-25.6-40.533333-59.733333-93.866667-59.733333-166.4 0-121.6 91.733333-221.866667 204.8-221.866667 46.933333 0 89.6 17.066667 123.733333 53.333333 14.933333 14.933333 42.666667 14.933333 57.6 0 36.266667-36.266667 76.8-53.333333 123.733333-53.333333 113.066667 0 202.666667 100.266667 202.666667 221.866667 2.133333 72.533333-29.866667 123.733333-57.6 166.4z" p-id="2170" fill="#2c2c2c"></path><path d="M684.8 488.533333s-93.866667 91.733333-145.066667 123.733334c-14.933333 10.666667-19.2 29.866667-8.533333 44.8 6.4 8.533333 17.066667 14.933333 25.6 14.933333 6.4 0 12.8-2.133333 17.066667-6.4 55.466667-36.266667 149.333333-128 153.6-132.266667 12.8-12.8 12.8-32 0-44.8-8.533333-12.8-29.866667-12.8-42.666667 0z" p-id="2171" fill="#2c2c2c"></path></svg>