<?xml version="1.0" standalone="no"?><!DOCTYPE svg PUBLIC "-//W3C//DTD SVG 1.1//EN" "http://www.w3.org/Graphics/SVG/1.1/DTD/svg11.dtd"><svg t="1607302164443" class="icon" viewBox="0 0 1086 1024" version="1.1" xmlns="http://www.w3.org/2000/svg" p-id="1451" xmlns:xlink="http://www.w3.org/1999/xlink" width="212.109375" height="200"><defs><style type="text/css"></style></defs><path d="M1048.119702 524.971684a41.204173 41.204173 0 0 1-25.180328-9.156483L544.513145 89.275708 65.323875 515.815201a38.152012 38.152012 0 0 1-53.412817 0A38.152012 38.152012 0 0 1 14.963219 457.824143L518.569776 9.919523a38.152012 38.152012 0 0 1 51.123696 0L1074.06307 457.824143a38.915052 38.915052 0 0 1 0 54.175857 38.915052 38.915052 0 0 1-25.943368 12.971684z" p-id="1452" fill="#515151"></path><path d="M832.179314 1024h-564.649776a38.152012 38.152012 0 0 1-38.152012-38.152012v-457.824143a38.152012 38.152012 0 1 1 76.304024 0v419.672131h488.345753v-419.672131a38.152012 38.152012 0 0 1 76.304023 0v457.824143a38.152012 38.152012 0 0 1-38.152012 38.152012z" p-id="1453" fill="#515151"></path></svg>