<?xml version="1.0" standalone="no"?><!DOCTYPE svg PUBLIC "-//W3C//DTD SVG 1.1//EN" "http://www.w3.org/Graphics/SVG/1.1/DTD/svg11.dtd"><svg t="1607301981416" class="icon" viewBox="0 0 1024 1024" version="1.1" xmlns="http://www.w3.org/2000/svg" p-id="853" xmlns:xlink="http://www.w3.org/1999/xlink" width="200" height="200"><defs><style type="text/css"></style></defs><path d="M868.24 745.09c-19.51-46.13-47.44-87.55-83-123.12-35.56-35.56-76.99-63.49-123.12-83a384.119 384.119 0 0 0-63.75-20.65c25.01-10.83 48.01-26.39 67.86-46.24 41.37-41.37 64.16-96.38 64.16-154.89 0-58.51-22.79-113.52-64.16-154.9-41.37-41.37-96.38-64.16-154.89-64.16s-113.52 22.79-154.9 64.16c-41.37 41.37-64.16 96.38-64.16 154.9s22.79 113.52 64.16 154.89c19.85 19.85 42.85 35.41 67.86 46.24a384.119 384.119 0 0 0-63.75 20.65c-46.13 19.51-87.55 47.44-123.12 83s-63.49 76.99-83 123.12c-20.21 47.78-30.45 98.51-30.45 150.79 0 16.57 13.43 30 30 30s30-13.43 30-30c0-180.51 146.85-327.36 327.36-327.36 180.51 0 327.36 146.85 327.36 327.36 0 16.57 13.43 30 30 30s30-13.43 30-30c-0.01-52.29-10.25-103.02-30.46-150.79zM352.28 317.18c0-87.7 71.35-159.05 159.05-159.05 87.7 0 159.05 71.35 159.05 159.05 0 87.7-71.35 159.05-159.05 159.05-87.7 0.01-159.05-71.35-159.05-159.05z" p-id="854" fill="#d4237a"></path></svg>